<svg xmlns="http://www.w3.org/2000/svg" viewBox="0 0 120 120" width="120" height="120">
@{Name=robot-bridge-04; Title=Heart screen; Body=  <rect x="8" y="8" width="104" height="104" rx="34" fill="#EFFAFF"/>
  <path d="M18 88C28 66 42 56 60 56C78 56 92 66 102 88" fill="none" stroke="#16B3A8" stroke-width="10" stroke-linecap="round"/>
  <path d="M34 88H86" stroke="#16B3A8" stroke-width="8" stroke-linecap="round"/>
  <path d="M50 32L46 24" stroke="#16B3A8" stroke-width="6" stroke-linecap="round"/>
  <path d="M70 32L74 24" stroke="#3A8CFF" stroke-width="6" stroke-linecap="round"/>
  <rect x="42" y="34" width="36" height="27" rx="13" fill="#FFFFFF" stroke="#18467D" stroke-width="4"/>
  <circle cx="54" cy="46" r="3.3" fill="#18467D"/>
  <circle cx="66" cy="46" r="3.3" fill="#18467D"/>
  <path d="M53 54C56 57 64 57 67 54" fill="none" stroke="#18467D" stroke-width="3.5" stroke-linecap="round"/>
  <rect x="47" y="63" width="26" height="18" rx="9" fill="#7DE3D8" stroke="#18467D" stroke-width="4"/>
  <path d="M57 72C54 69 54 65 58 65C60 65 61 66 62 67C63 66 64 65 66 65C70 65 70 69 67 72L62 76Z" fill="#18467D"/>
  <path d="M42 70L48 72" stroke="#18467D" stroke-width="5" stroke-linecap="round"/>
  <path d="M72 72L78 68" stroke="#18467D" stroke-width="5" stroke-linecap="round"/>
  <path d="M55 81L52 89" stroke="#18467D" stroke-width="5" stroke-linecap="round"/>
  <path d="M65 81L68 89" stroke="#18467D" stroke-width="5" stroke-linecap="round"/>}.Body
</svg>
