<svg xmlns="http://www.w3.org/2000/svg" viewBox="0 0 120 120" width="120" height="120">
@{Name=robot-bridge-08; Title=Mini coder; Body=  <rect x="8" y="8" width="104" height="104" rx="28" fill="#F4FBFF"/>
  <path d="M18 88C28 66 42 56 60 56C78 56 92 66 102 88" fill="none" stroke="#19B4AA" stroke-width="10" stroke-linecap="round"/>
  <path d="M34 88H86" stroke="#19B4AA" stroke-width="8" stroke-linecap="round"/>
  <path d="M50 31L46 22" stroke="#19B4AA" stroke-width="6" stroke-linecap="round"/>
  <path d="M70 31L74 22" stroke="#3F90FF" stroke-width="6" stroke-linecap="round"/>
  <rect x="42" y="33" width="36" height="28" rx="14" fill="#FFFFFF" stroke="#18497F" stroke-width="4"/>
  <circle cx="54" cy="46" r="3.3" fill="#18497F"/>
  <circle cx="66" cy="46" r="3.3" fill="#18497F"/>
  <path d="M53 54C56 57 64 57 67 54" fill="none" stroke="#18497F" stroke-width="3.5" stroke-linecap="round"/>
  <rect x="47" y="63" width="26" height="17" rx="8.5" fill="#8BE8E0" stroke="#18497F" stroke-width="4"/>
  <path d="M54 67L50 71L54 75" fill="none" stroke="#18497F" stroke-width="3.5" stroke-linecap="round" stroke-linejoin="round"/>
  <path d="M66 67L70 71L66 75" fill="none" stroke="#18497F" stroke-width="3.5" stroke-linecap="round" stroke-linejoin="round"/>
  <path d="M42 70L48 72" stroke="#18497F" stroke-width="5" stroke-linecap="round"/>
  <path d="M72 72L78 68" stroke="#18497F" stroke-width="5" stroke-linecap="round"/>
  <path d="M55 80L52 89" stroke="#18497F" stroke-width="5" stroke-linecap="round"/>
  <path d="M65 80L68 89" stroke="#18497F" stroke-width="5" stroke-linecap="round"/>}.Body
</svg>
