<svg xmlns="http://www.w3.org/2000/svg" viewBox="0 0 120 120" width="120" height="120">
@{Name=cute-bot-10; Title=靠肩版; Body=  <path d="M19 88C29 69 44 60 60 60C76 60 91 69 101 88" fill="none" stroke="#18BBB2" stroke-width="10" stroke-linecap="round"/>
  <path d="M33 88H87" stroke="#3892F4" stroke-width="7" stroke-linecap="round"/>
  <path d="M7 57C7 40 20 27 35 27C43 27 50 30 54 35C58 30 65 27 74 27C89 27 101 40 101 57C101 72 89 84 74 84H34C19 84 7 72 7 57Z" fill="#1CC8BF"/>
  <path d="M42 27C50 27 57 30 61 35C65 30 72 27 81 27C96 27 109 40 109 57C109 72 96 84 81 84H66C77 84 86 73 86 60C86 46 75 36 61 36C52 36 44 41 39 49C36 41 28 36 19 36C17 36 15 36 13 37C18 31 25 27 33 27H42Z" fill="#3892F4"/>
  <ellipse cx="30" cy="53" rx="16" ry="14" fill="#FFFDF8" transform="rotate(-6 30 53)"/>
  <ellipse cx="80" cy="53" rx="16" ry="14" fill="#FFFDF8" transform="rotate(6 80 53)"/>
  <circle cx="26" cy="52" r="3.2" fill="#0A2B5E"/><path d="M34 57C37 60 42 60 45 57" fill="none" stroke="#0A2B5E" stroke-width="3" stroke-linecap="round"/>
  <circle cx="75" cy="52" r="3.2" fill="#0A2B5E"/><path d="M83 57C86 60 91 60 94 57" fill="none" stroke="#0A2B5E" stroke-width="3" stroke-linecap="round"/>
  <path d="M19 29L15 20" stroke="#1CC8BF" stroke-width="5" stroke-linecap="round"/><circle cx="13" cy="17" r="4" fill="#1CC8BF"/>
  <path d="M97 29L101 20" stroke="#3892F4" stroke-width="5" stroke-linecap="round"/><circle cx="103" cy="17" r="4" fill="#3892F4"/>}.Body
</svg>
