<svg xmlns="http://www.w3.org/2000/svg" viewBox="0 0 120 120" width="120" height="120">
@{Name=route-sign-07; Title=Suspension sign; Body=  <path d="M20 18H100V102H20C14 102 10 98 10 92V28C10 22 14 18 20 18Z" fill="#145585"/>
  <path d="M30 72H90" stroke="#8FE9DD" stroke-width="7" stroke-linecap="round"/>
  <path d="M38 72C44 60 52 54 60 54C68 54 76 60 82 72" fill="none" stroke="#8FE9DD" stroke-width="8" stroke-linecap="round"/>
  <path d="M42 42V72M78 42V72" stroke="#8FE9DD" stroke-width="7" stroke-linecap="round"/>
  <circle cx="60" cy="40" r="7" fill="#FFF9EC"/>
  <path d="M60 47V61" stroke="#FFF9EC" stroke-width="8" stroke-linecap="round"/>
  <path d="M49 56L60 49L71 56" fill="none" stroke="#FFF9EC" stroke-width="7" stroke-linecap="round" stroke-linejoin="round"/>
  <path d="M52 81L60 68L68 81" fill="none" stroke="#FFD166" stroke-width="7" stroke-linecap="round" stroke-linejoin="round"/>}.Body
</svg>
