<svg xmlns="http://www.w3.org/2000/svg" viewBox="0 0 120 120" width="120" height="120">
@{Name=qbot-03; Title=Wayfinder bot; Body=  <path d="M26 18H82L102 40L86 58L102 76L82 102H26C18 102 12 96 12 88V32C12 24 18 18 26 18Z" fill="#1363A1"/>
  <path d="M24 78C31 62 45 54 60 54C75 54 89 62 96 78" fill="none" stroke="#90F2E7" stroke-width="9" stroke-linecap="round"/>
  <path d="M38 78H82" stroke="#90F2E7" stroke-width="8" stroke-linecap="round"/>
  <path d="M50 28L46 17" stroke="#FFF5DE" stroke-width="6" stroke-linecap="round"/>
  <path d="M70 28L74 17" stroke="#FFF5DE" stroke-width="6" stroke-linecap="round"/>
  <rect x="44" y="30" width="32" height="24" rx="11" fill="#FFF9F0"/>
  <circle cx="54" cy="40" r="3" fill="#1363A1"/>
  <circle cx="66" cy="40" r="3" fill="#1363A1"/>
  <path d="M53 47C56 50 64 50 67 47" fill="none" stroke="#1363A1" stroke-width="3" stroke-linecap="round"/>
  <rect x="49" y="56" width="22" height="15" rx="7" fill="#FFF9F0"/>
  <path d="M44 62L50 64" stroke="#FFF9F0" stroke-width="6" stroke-linecap="round"/>
  <path d="M70 63L76 58" stroke="#FFF9F0" stroke-width="6" stroke-linecap="round"/>
  <path d="M55 71L52 79" stroke="#FFF9F0" stroke-width="6" stroke-linecap="round"/>
  <path d="M65 71L68 79" stroke="#FFF9F0" stroke-width="6" stroke-linecap="round"/>}.Body
</svg>
